# xmcd CD database file
#
# Track frame offsets:
#	150
#	35834
#	69951
#	117092
#
# Disc length: 2279 seconds
#
# Revision: 0
# Processed by: cddbd v1.5.1PL0 Copyright (c) Steve Scherf et al.
# Submitted via: CDex 1.51
#
DISCID=2f08e504
DTITLE=Billy Cobham Culture Mix  - Jazzfest Burghausen 2003
DYEAR=2003
DGENRE=Jazz
TTITLE0=Billy Cobham - Five Day Run
TTITLE1=Billy Cobham - Red Baron
TTITLE2=Billy Cobham - Sa Pobla
TTITLE3=Billy Cobham - Culture Mix
EXTD=YEAR: 2003
EXTT0=
EXTT1=
EXTT2=
EXTT3=
PLAYORDER=
